<svg width="154" height="165" viewBox="0 0 154 165" fill="none" xmlns="http://www.w3.org/2000/svg">
<mask id="mask0_54_1487" style="mask-type:alpha" maskUnits="userSpaceOnUse" x="91" y="17" width="61" height="116">
<path d="M99.7864 17.2839C109.188 20.4637 117.87 25.464 125.339 31.9994C132.808 38.5348 138.916 46.4773 143.315 55.3733C147.714 64.2694 150.318 73.9448 150.978 83.8472C151.638 93.7496 150.341 103.685 147.161 113.086L124.077 105.278C126.232 98.9087 127.111 92.177 126.663 85.4676C126.216 78.7583 124.452 72.2028 121.471 66.1753C118.491 60.1478 114.352 54.7664 109.292 50.3383C104.231 45.9103 98.3483 42.5223 91.9786 40.3679L99.7864 17.2839Z" fill="#C4C4C4"/>
<path d="M127.568 132.816L121.988 104.383L149.216 113.556L127.568 132.816Z" fill="#C4C4C4"/>
</mask>
<g mask="url(#mask0_54_1487)">
<rect x="20.9585" y="8.66504" width="153.967" height="151.145" fill="url(#paint0_linear_54_1487)"/>
</g>
<mask id="mask1_54_1487" style="mask-type:alpha" maskUnits="userSpaceOnUse" x="2" y="9" width="82" height="97">
<path d="M6.11543 105.703C3.21728 96.211 2.21705 86.2414 3.17185 76.3631C4.12665 66.4848 7.01777 56.8912 11.6802 48.1303C16.3425 39.3693 22.6849 31.6124 30.345 25.3025C38.0052 18.9926 46.8332 14.2533 56.325 11.3552L63.4412 34.6617C57.0101 36.6253 51.0287 39.8364 45.8386 44.1116C40.6485 48.3869 36.3513 53.6425 33.1923 59.5785C30.0333 65.5145 28.0744 72.0145 27.4275 78.7075C26.7806 85.4005 27.4583 92.1554 29.4219 98.5865L6.11543 105.703Z" fill="#C4C4C4"/>
<path d="M83.9089 15.8492L64.108 37.0036L55.6259 9.55198L83.9089 15.8492Z" fill="#C4C4C4"/>
</mask>
<g mask="url(#mask1_54_1487)">
<rect x="-37.8872" y="133.814" width="151.145" height="160.819" transform="rotate(-90 -37.8872 133.814)" fill="url(#paint1_linear_54_1487)"/>
</g>
<mask id="mask2_54_1487" style="mask-type:alpha" maskUnits="userSpaceOnUse" x="12" y="116" width="118" height="49">
<path d="M129.011 142.31C121.993 149.328 113.662 154.895 104.493 158.693C95.3242 162.49 85.497 164.445 75.5727 164.445C65.6483 164.445 55.8212 162.49 46.6523 158.693C37.4834 154.895 29.1523 149.328 22.1347 142.31L39.366 125.079C44.1207 129.834 49.7654 133.606 55.9778 136.179C62.1901 138.752 68.8485 140.077 75.5727 140.077C82.2969 140.077 88.9553 138.752 95.1676 136.179C101.38 133.606 107.025 129.834 111.779 125.079L129.011 142.31Z" fill="#C4C4C4"/>
<path d="M12.9571 116.102L40.8967 123.78L20.5485 144.065L12.9571 116.102Z" fill="#C4C4C4"/>
</mask>
<g mask="url(#mask2_54_1487)">
<rect x="133.008" y="24.7876" width="151.145" height="151.145" transform="rotate(90 133.008 24.7876)" fill="url(#paint2_linear_54_1487)"/>
</g>
<path d="M45.2622 108.869V81.4106L39.4683 83.4258L36.9492 77.6319L46.2699 73.6014H54.3309V108.869H45.2622ZM80.0394 83.1739C80.0394 81.1587 79.0318 80.151 77.0165 80.151H71.4745C69.4593 80.151 68.4516 81.1587 68.4516 83.1739V99.2961C68.4516 101.311 69.4593 102.319 71.4745 102.319H77.0165C79.0318 102.319 80.0394 101.311 80.0394 99.2961V83.1739ZM89.1082 99.2961C89.1082 102.823 88.3021 105.392 86.6898 107.005C85.1112 108.583 82.5585 109.372 79.0318 109.372H69.4593C65.9325 109.372 63.3631 108.583 61.7508 107.005C60.1722 105.392 59.3829 102.823 59.3829 99.2961V83.1739C59.3829 79.6472 60.1722 77.0945 61.7508 75.5159C63.3631 73.9037 65.9325 73.0976 69.4593 73.0976H79.0318C82.5585 73.0976 85.1112 73.9037 86.6898 75.5159C88.3021 77.0945 89.1082 79.6472 89.1082 83.1739V99.2961ZM99.4325 108.869V81.4106L93.6386 83.4258L91.1195 77.6319L100.44 73.6014H108.501V108.869H99.4325Z" fill="white"/>
<defs>
<linearGradient id="paint0_linear_54_1487" x1="178.005" y1="157.543" x2="23.7631" y2="5.814" gradientUnits="userSpaceOnUse">
<stop offset="0.0964722" stop-color="#4971AE"/>
<stop offset="1" stop-color="#4971AE"/>
</linearGradient>
<linearGradient id="paint1_linear_54_1487" x1="113.258" y1="294.633" x2="-47.2516" y2="143.778" gradientUnits="userSpaceOnUse">
<stop stop-color="#E9AD27"/>
<stop offset="1" stop-color="#E9AD27"/>
</linearGradient>
<linearGradient id="paint2_linear_54_1487" x1="208.581" y1="24.7876" x2="208.581" y2="175.933" gradientUnits="userSpaceOnUse">
<stop stop-color="#8EBB46"/>
<stop offset="1" stop-color="#8EBB46"/>
</linearGradient>
</defs>
</svg>
