<svg width="69" height="69" viewBox="0 0 69 69" fill="none" xmlns="http://www.w3.org/2000/svg">
<path fill-rule="evenodd" clip-rule="evenodd" d="M51.3833 34.8922C51.3833 33.669 51.2735 32.4929 51.0696 31.3638H34.8232V38.0364H44.1069C43.707 40.1927 42.4917 42.0196 40.6647 43.2428V47.571H46.2396C49.5015 44.5679 51.3833 40.1456 51.3833 34.8922Z" fill="#4285F4"/>
<path fill-rule="evenodd" clip-rule="evenodd" d="M34.8225 51.7499C39.48 51.7499 43.3848 50.2052 46.2389 47.5707L40.664 43.2425C39.1193 44.2775 37.1434 44.8891 34.8225 44.8891C30.3296 44.8891 26.5268 41.8546 25.1703 37.7773H19.4072V42.2467C22.2456 47.8843 28.0793 51.7499 34.8225 51.7499Z" fill="#34A853"/>
<path fill-rule="evenodd" clip-rule="evenodd" d="M25.1711 37.7773C24.8261 36.7423 24.6301 35.6367 24.6301 34.4998C24.6301 33.3628 24.8261 32.2573 25.1711 31.2223V26.7529H19.408C18.2397 29.0817 17.5732 31.7162 17.5732 34.4998C17.5732 37.2833 18.2397 39.9178 19.408 42.2466L25.1711 37.7773Z" fill="#FBBC05"/>
<path fill-rule="evenodd" clip-rule="evenodd" d="M34.8225 24.1108C37.3551 24.1108 39.629 24.9812 41.4167 26.6905L46.3643 21.7429C43.3769 18.9593 39.4722 17.25 34.8225 17.25C28.0793 17.25 22.2456 21.1156 19.4072 26.7532L25.1703 31.2225C26.5268 27.1452 30.3296 24.1108 34.8225 24.1108Z" fill="#EA4335"/>
</svg>
