<svg width="36" height="49" viewBox="0 0 36 49" fill="none" xmlns="http://www.w3.org/2000/svg">
<path d="M14.4502 28.9626L19.2182 31.7155L9.53586 48.4859L6.75682 42.288L14.4502 28.9626Z" fill="#418ED6"/>
<path d="M14.4502 28.9626L9.68215 26.2098L-0.000229566 42.9802L6.75682 42.288L14.4502 28.9626Z" fill="#2B63A6"/>
<path d="M21.2529 28.9626L16.4849 31.7155L26.1673 48.4859L28.9463 42.288L21.2529 28.9626Z" fill="#2B63A6"/>
<path d="M21.2529 28.9626L26.021 26.2098L35.7034 42.9802L28.9463 42.288L21.2529 28.9626Z" fill="#418ED6"/>
<circle cx="17.8442" cy="17.4155" r="16.9155" fill="#FFEABA" stroke="#E9AD27"/>
<circle cx="17.844" cy="17.4156" r="12.8137" fill="#8F5600"/>
<mask id="mask0_138_329" style="mask-type:alpha" maskUnits="userSpaceOnUse" x="5" y="5" width="27" height="27">
<circle cx="18.5281" cy="18.7835" r="12.8436" fill="#C28B37"/>
</mask>
<g mask="url(#mask0_138_329)">
<circle cx="17.8441" cy="17.4156" r="12.8436" fill="url(#paint0_linear_138_329)"/>
</g>
<path d="M17.9132 8.48022L20.6837 14.0213L26.2248 14.7139L22.4199 18.9806L23.4543 25.1035L17.9132 22.3329L12.3721 25.1035L13.4157 18.9806L9.60156 14.7139L15.1426 14.0213L17.9132 8.48022Z" fill="url(#paint1_linear_138_329)"/>
<defs>
<linearGradient id="paint0_linear_138_329" x1="17.8441" y1="4.57202" x2="17.8441" y2="30.2592" gradientUnits="userSpaceOnUse">
<stop stop-color="#E9AD27"/>
<stop offset="1" stop-color="#B68311"/>
</linearGradient>
<linearGradient id="paint1_linear_138_329" x1="17.9132" y1="8.48022" x2="17.9132" y2="25.1035" gradientUnits="userSpaceOnUse">
<stop stop-color="#F1F5F5"/>
<stop offset="0.0001" stop-color="white"/>
<stop offset="1" stop-color="#F1F5F5"/>
</linearGradient>
</defs>
</svg>
