<svg width="823" height="239" viewBox="0 0 823 239" fill="none" xmlns="http://www.w3.org/2000/svg">
<path d="M9.42999 237.94C9.29528 237.94 9.13951 237.932 8.9627 237.915C8.79431 237.907 8.62171 237.881 8.4449 237.839V236.968C8.60487 237.002 8.75222 237.027 8.88693 237.044C9.03006 237.069 9.15635 237.082 9.26581 237.082C9.65311 237.082 9.94358 236.959 10.1372 236.715C10.3309 236.48 10.4277 236.101 10.4277 235.579V226.688H11.4759V235.591C11.4759 236.096 11.4002 236.526 11.2486 236.879C11.1055 237.233 10.8824 237.498 10.5793 237.675C10.2846 237.852 9.90148 237.94 9.42999 237.94ZM16.1564 235.705C15.5923 235.705 15.0997 235.574 14.6787 235.313C14.2578 235.044 13.9294 234.665 13.6937 234.177C13.4663 233.688 13.3527 233.103 13.3527 232.421C13.3527 231.731 13.4663 231.142 13.6937 230.653C13.9294 230.165 14.2578 229.79 14.6787 229.529C15.0997 229.268 15.5923 229.138 16.1564 229.138C16.7289 229.138 17.2214 229.285 17.634 229.58C18.055 229.866 18.3328 230.258 18.4675 230.754H18.316L18.4549 229.251H19.44C19.4147 229.496 19.3895 229.744 19.3642 229.997C19.3474 230.241 19.339 230.481 19.339 230.716V235.591H18.316V234.101H18.4549C18.3202 234.598 18.0423 234.989 17.6214 235.276C17.2004 235.562 16.7121 235.705 16.1564 235.705ZM16.3584 234.871C16.9646 234.871 17.4446 234.665 17.7982 234.253C18.1518 233.832 18.3286 233.221 18.3286 232.421C18.3286 231.613 18.1518 231.003 17.7982 230.59C17.4446 230.169 16.9646 229.959 16.3584 229.959C15.7607 229.959 15.2807 230.169 14.9187 230.59C14.5651 231.003 14.3883 231.613 14.3883 232.421C14.3883 233.221 14.5651 233.832 14.9187 234.253C15.2807 234.665 15.7607 234.871 16.3584 234.871ZM21.4747 235.591V230.716C21.4747 230.481 21.4621 230.241 21.4368 229.997C21.42 229.744 21.3989 229.496 21.3736 229.251H22.3587L22.485 230.641H22.3335C22.5187 230.152 22.8134 229.782 23.2175 229.529C23.6301 229.268 24.1058 229.138 24.6446 229.138C25.394 229.138 25.9581 229.34 26.337 229.744C26.7243 230.14 26.9179 230.767 26.9179 231.626V235.591H25.8949V231.689C25.8949 231.091 25.7729 230.657 25.5287 230.388C25.2929 230.11 24.9225 229.971 24.4173 229.971C23.8279 229.971 23.3607 230.152 23.0155 230.514C22.6703 230.876 22.4977 231.36 22.4977 231.967V235.591H21.4747Z" fill="#929292"/>
<path d="M79.785 235.591V226.688H85.3419V227.546H80.8332V230.666H85.064V231.525H80.8332V235.591H79.785ZM89.5028 235.705C88.5093 235.705 87.7263 235.419 87.1538 234.846C86.5813 234.265 86.295 233.461 86.295 232.434C86.295 231.769 86.4213 231.192 86.6739 230.704C86.9265 230.207 87.2801 229.824 87.7347 229.555C88.1894 229.277 88.7114 229.138 89.3008 229.138C89.8817 229.138 90.37 229.26 90.7658 229.504C91.1615 229.748 91.4646 230.098 91.6751 230.552C91.8856 230.998 91.9908 231.529 91.9908 232.144V232.522H87.078V231.878H91.3214L91.1067 232.042C91.1067 231.369 90.9552 230.843 90.6521 230.464C90.349 230.085 89.8985 229.895 89.3008 229.895C88.6693 229.895 88.1768 230.119 87.8231 230.565C87.4695 231.003 87.2927 231.596 87.2927 232.346V232.459C87.2927 233.251 87.4864 233.853 87.8736 234.265C88.2694 234.669 88.8208 234.871 89.5281 234.871C89.907 234.871 90.2606 234.817 90.5889 234.707C90.9257 234.589 91.2457 234.4 91.5488 234.139L91.9024 234.859C91.6245 235.128 91.2709 235.339 90.8415 235.49C90.4206 235.633 89.9743 235.705 89.5028 235.705ZM96.8966 235.705C96.3241 235.705 95.8315 235.562 95.419 235.276C95.0064 234.981 94.7286 234.581 94.5854 234.076H94.7244V235.591H93.714V226.296H94.737V230.729H94.5854C94.7286 230.241 95.0064 229.853 95.419 229.567C95.8315 229.281 96.3241 229.138 96.8966 229.138C97.4691 229.138 97.9617 229.272 98.3742 229.542C98.7952 229.803 99.1193 230.178 99.3467 230.666C99.5824 231.154 99.7003 231.739 99.7003 232.421C99.7003 233.103 99.5824 233.688 99.3467 234.177C99.1109 234.665 98.7826 235.044 98.3616 235.313C97.949 235.574 97.4607 235.705 96.8966 235.705ZM96.6819 234.871C97.2797 234.871 97.7596 234.665 98.1216 234.253C98.4837 233.84 98.6647 233.23 98.6647 232.421C98.6647 231.613 98.4837 231.003 98.1216 230.59C97.7596 230.169 97.2797 229.959 96.6819 229.959C96.0841 229.959 95.6042 230.169 95.2422 230.59C94.8885 231.003 94.7117 231.613 94.7117 232.421C94.7117 233.221 94.8885 233.832 95.2422 234.253C95.6042 234.665 96.0841 234.871 96.6819 234.871Z" fill="#929292"/>
<path d="M150.668 235.591V226.688H151.578L155.152 234.758H154.786L158.36 226.688H159.269V235.591H158.309V228.039H158.688L155.316 235.591H154.621L151.237 228.039H151.616V235.591H150.668ZM163.953 235.705C163.389 235.705 162.897 235.574 162.476 235.313C162.055 235.044 161.726 234.665 161.49 234.177C161.263 233.688 161.149 233.103 161.149 232.421C161.149 231.731 161.263 231.142 161.49 230.653C161.726 230.165 162.055 229.79 162.476 229.529C162.897 229.268 163.389 229.138 163.953 229.138C164.526 229.138 165.018 229.285 165.431 229.58C165.852 229.866 166.13 230.258 166.264 230.754H166.113L166.252 229.251H167.237C167.212 229.496 167.186 229.744 167.161 229.997C167.144 230.241 167.136 230.481 167.136 230.716V235.591H166.113V234.101H166.252C166.117 234.598 165.839 234.989 165.418 235.276C164.997 235.562 164.509 235.705 163.953 235.705ZM164.155 234.871C164.761 234.871 165.241 234.665 165.595 234.253C165.949 233.832 166.125 233.221 166.125 232.421C166.125 231.613 165.949 231.003 165.595 230.59C165.241 230.169 164.761 229.959 164.155 229.959C163.557 229.959 163.078 230.169 162.715 230.59C162.362 231.003 162.185 231.613 162.185 232.421C162.185 233.221 162.362 233.832 162.715 234.253C163.078 234.665 163.557 234.871 164.155 234.871ZM169.246 235.591V230.78C169.246 230.527 169.238 230.27 169.221 230.009C169.213 229.748 169.196 229.496 169.17 229.251H170.156L170.282 230.792L170.105 230.805C170.189 230.426 170.337 230.114 170.547 229.87C170.758 229.626 171.006 229.445 171.292 229.327C171.578 229.201 171.877 229.138 172.189 229.138C172.315 229.138 172.425 229.142 172.517 229.15C172.618 229.159 172.711 229.18 172.795 229.214L172.782 230.123C172.656 230.081 172.538 230.055 172.429 230.047C172.328 230.03 172.21 230.022 172.075 230.022C171.705 230.022 171.381 230.11 171.103 230.287C170.833 230.464 170.627 230.691 170.484 230.969C170.349 231.247 170.282 231.542 170.282 231.853V235.591H169.246Z" fill="#929292"/>
<path d="M222.27 235.591L226.198 226.688H227.107L231.098 235.591H230.012L228.9 233.053L229.367 233.318H223.924L224.429 233.053L223.343 235.591H222.27ZM226.64 227.887L224.594 232.687L224.29 232.459H228.989L228.761 232.687L226.665 227.887H226.64ZM232.485 238.319V230.716C232.485 230.481 232.472 230.241 232.447 229.997C232.43 229.744 232.409 229.496 232.384 229.251H233.369L233.508 230.754H233.356C233.491 230.258 233.765 229.866 234.177 229.58C234.59 229.285 235.082 229.138 235.655 229.138C236.228 229.138 236.72 229.268 237.133 229.529C237.554 229.79 237.882 230.165 238.118 230.653C238.353 231.142 238.471 231.731 238.471 232.421C238.471 233.103 238.353 233.688 238.118 234.177C237.89 234.665 237.566 235.044 237.145 235.313C236.724 235.574 236.228 235.705 235.655 235.705C235.091 235.705 234.603 235.562 234.19 235.276C233.777 234.989 233.504 234.598 233.369 234.101H233.508V238.319H232.485ZM235.453 234.871C236.059 234.871 236.539 234.665 236.893 234.253C237.255 233.832 237.436 233.221 237.436 232.421C237.436 231.613 237.255 231.003 236.893 230.59C236.539 230.169 236.059 229.959 235.453 229.959C234.855 229.959 234.375 230.169 234.013 230.59C233.66 231.003 233.483 231.613 233.483 232.421C233.483 233.221 233.66 233.832 234.013 234.253C234.375 234.665 234.855 234.871 235.453 234.871ZM240.19 235.591V230.78C240.19 230.527 240.182 230.27 240.165 230.009C240.157 229.748 240.14 229.496 240.115 229.251H241.1L241.226 230.792L241.049 230.805C241.133 230.426 241.281 230.114 241.491 229.87C241.702 229.626 241.95 229.445 242.236 229.327C242.522 229.201 242.821 229.138 243.133 229.138C243.259 229.138 243.369 229.142 243.461 229.15C243.562 229.159 243.655 229.18 243.739 229.214L243.726 230.123C243.6 230.081 243.482 230.055 243.373 230.047C243.272 230.03 243.154 230.022 243.019 230.022C242.649 230.022 242.325 230.11 242.047 230.287C241.777 230.464 241.571 230.691 241.428 230.969C241.293 231.247 241.226 231.542 241.226 231.853V235.591H240.19Z" fill="#929292"/>
<path d="M292.687 235.591V226.688H293.596L297.17 234.758H296.804L300.378 226.688H301.287V235.591H300.328V228.039H300.706L297.334 235.591H296.64L293.255 228.039H293.634V235.591H292.687ZM305.972 235.705C305.407 235.705 304.915 235.574 304.494 235.313C304.073 235.044 303.745 234.665 303.509 234.177C303.281 233.688 303.168 233.103 303.168 232.421C303.168 231.731 303.281 231.142 303.509 230.653C303.745 230.165 304.073 229.79 304.494 229.529C304.915 229.268 305.407 229.138 305.972 229.138C306.544 229.138 307.037 229.285 307.449 229.58C307.87 229.866 308.148 230.258 308.283 230.754H308.131L308.27 229.251H309.255C309.23 229.496 309.205 229.744 309.179 229.997C309.163 230.241 309.154 230.481 309.154 230.716V235.591H308.131V234.101H308.27C308.135 234.598 307.858 234.989 307.437 235.276C307.016 235.562 306.527 235.705 305.972 235.705ZM306.174 234.871C306.78 234.871 307.26 234.665 307.613 234.253C307.967 233.832 308.144 233.221 308.144 232.421C308.144 231.613 307.967 231.003 307.613 230.59C307.26 230.169 306.78 229.959 306.174 229.959C305.576 229.959 305.096 230.169 304.734 230.59C304.38 231.003 304.203 231.613 304.203 232.421C304.203 233.221 304.38 233.832 304.734 234.253C305.096 234.665 305.576 234.871 306.174 234.871ZM310.976 238.458L310.736 237.612C311.131 237.519 311.46 237.41 311.721 237.284C311.99 237.166 312.213 237.006 312.39 236.804C312.567 236.602 312.718 236.349 312.845 236.046L313.173 235.301L313.148 235.73L310.382 229.251H311.493L313.779 234.821H313.451L315.712 229.251H316.785L313.855 236.122C313.687 236.526 313.501 236.863 313.299 237.132C313.097 237.41 312.878 237.633 312.643 237.801C312.415 237.978 312.163 238.117 311.885 238.218C311.607 238.319 311.304 238.399 310.976 238.458Z" fill="#929292"/>
<path d="M366.995 237.94C366.86 237.94 366.705 237.932 366.528 237.915C366.359 237.907 366.187 237.881 366.01 237.839V236.968C366.17 237.002 366.317 237.027 366.452 237.044C366.595 237.069 366.722 237.082 366.831 237.082C367.218 237.082 367.509 236.959 367.702 236.715C367.896 236.48 367.993 236.101 367.993 235.579V226.688H369.041V235.591C369.041 236.096 368.965 236.526 368.814 236.879C368.671 237.233 368.448 237.498 368.144 237.675C367.85 237.852 367.467 237.94 366.995 237.94ZM373.545 235.705C372.795 235.705 372.227 235.499 371.84 235.086C371.461 234.674 371.271 234.042 371.271 233.192V229.251H372.294V233.166C372.294 233.747 372.412 234.177 372.648 234.455C372.884 234.724 373.25 234.859 373.747 234.859C374.302 234.859 374.749 234.678 375.086 234.316C375.422 233.954 375.591 233.47 375.591 232.863V229.251H376.614V235.591H375.616V234.164H375.78C375.603 234.653 375.317 235.031 374.921 235.301C374.534 235.57 374.075 235.705 373.545 235.705ZM378.756 235.591V230.716C378.756 230.481 378.744 230.241 378.718 229.997C378.701 229.744 378.68 229.496 378.655 229.251H379.64L379.767 230.641H379.615C379.8 230.152 380.095 229.782 380.499 229.529C380.912 229.268 381.387 229.138 381.926 229.138C382.675 229.138 383.24 229.34 383.618 229.744C384.006 230.14 384.199 230.767 384.199 231.626V235.591H383.176V231.689C383.176 231.091 383.054 230.657 382.81 230.388C382.574 230.11 382.204 229.971 381.699 229.971C381.109 229.971 380.642 230.152 380.297 230.514C379.952 230.876 379.779 231.36 379.779 231.967V235.591H378.756Z" fill="#929292"/>
<path d="M440.517 237.94C440.382 237.94 440.227 237.932 440.05 237.915C439.881 237.907 439.709 237.881 439.532 237.839V236.968C439.692 237.002 439.839 237.027 439.974 237.044C440.117 237.069 440.244 237.082 440.353 237.082C440.74 237.082 441.031 236.959 441.224 236.715C441.418 236.48 441.515 236.101 441.515 235.579V226.688H442.563V235.591C442.563 236.096 442.487 236.526 442.336 236.879C442.193 237.233 441.97 237.498 441.666 237.675C441.372 237.852 440.989 237.94 440.517 237.94ZM447.067 235.705C446.317 235.705 445.749 235.499 445.362 235.086C444.983 234.674 444.793 234.042 444.793 233.192V229.251H445.816V233.166C445.816 233.747 445.934 234.177 446.17 234.455C446.406 234.724 446.772 234.859 447.269 234.859C447.824 234.859 448.271 234.678 448.607 234.316C448.944 233.954 449.113 233.47 449.113 232.863V229.251H450.136V235.591H449.138V234.164H449.302C449.125 234.653 448.839 235.031 448.443 235.301C448.056 235.57 447.597 235.705 447.067 235.705ZM452.278 235.591V226.296H453.301V235.591H452.278Z" fill="#929292"/>
<path d="M506.208 235.591L510.136 226.688H511.045L515.036 235.591H513.95L512.839 233.053L513.306 233.318H507.863L508.368 233.053L507.282 235.591H506.208ZM510.578 227.887L508.532 232.687L508.229 232.459H512.927L512.7 232.687L510.603 227.887H510.578ZM518.659 235.705C517.91 235.705 517.341 235.499 516.954 235.086C516.575 234.674 516.386 234.042 516.386 233.192V229.251H517.409V233.166C517.409 233.747 517.527 234.177 517.762 234.455C517.998 234.724 518.364 234.859 518.861 234.859C519.417 234.859 519.863 234.678 520.2 234.316C520.537 233.954 520.705 233.47 520.705 232.863V229.251H521.728V235.591H520.73V234.164H520.894C520.718 234.653 520.431 235.031 520.036 235.301C519.648 235.57 519.189 235.705 518.659 235.705ZM526.662 238.408C526.114 238.408 525.609 238.34 525.146 238.206C524.683 238.071 524.266 237.865 523.896 237.587L524.199 236.816C524.46 237.002 524.717 237.149 524.969 237.258C525.222 237.368 525.483 237.448 525.752 237.498C526.022 237.557 526.308 237.587 526.611 237.587C527.234 237.587 527.706 237.423 528.026 237.094C528.345 236.766 528.505 236.299 528.505 235.692V233.836H528.632C528.497 234.333 528.219 234.728 527.798 235.023C527.377 235.309 526.885 235.452 526.321 235.452C525.74 235.452 525.234 235.326 524.805 235.074C524.384 234.813 524.056 234.446 523.82 233.975C523.593 233.495 523.479 232.931 523.479 232.282C523.479 231.643 523.593 231.087 523.82 230.615C524.056 230.144 524.384 229.782 524.805 229.529C525.234 229.268 525.74 229.138 526.321 229.138C526.893 229.138 527.386 229.281 527.798 229.567C528.219 229.853 528.497 230.249 528.632 230.754L528.505 230.628L528.619 229.251H529.617C529.583 229.496 529.558 229.744 529.541 229.997C529.524 230.241 529.516 230.481 529.516 230.716V235.553C529.516 236.496 529.272 237.208 528.783 237.688C528.303 238.168 527.596 238.408 526.662 238.408ZM526.51 234.619C527.125 234.619 527.609 234.417 527.962 234.013C528.316 233.6 528.493 233.023 528.493 232.282C528.493 231.542 528.316 230.969 527.962 230.565C527.609 230.161 527.125 229.959 526.51 229.959C525.904 229.959 525.42 230.161 525.058 230.565C524.696 230.969 524.515 231.542 524.515 232.282C524.515 233.023 524.696 233.6 525.058 234.013C525.42 234.417 525.904 234.619 526.51 234.619Z" fill="#929292"/>
<path d="M582.655 235.705C581.94 235.705 581.3 235.612 580.736 235.427C580.172 235.242 579.679 234.977 579.258 234.631L579.637 233.798C579.932 234.017 580.226 234.202 580.521 234.354C580.824 234.497 581.148 234.606 581.493 234.682C581.839 234.749 582.226 234.783 582.655 234.783C583.405 234.783 583.96 234.644 584.322 234.366C584.684 234.088 584.866 233.718 584.866 233.255C584.866 232.859 584.739 232.556 584.487 232.346C584.234 232.135 583.792 231.967 583.161 231.84L581.834 231.575C581.018 231.407 580.407 231.133 580.003 230.754C579.608 230.375 579.41 229.862 579.41 229.214C579.41 228.683 579.544 228.22 579.814 227.824C580.092 227.429 580.479 227.121 580.976 226.902C581.472 226.683 582.049 226.574 582.706 226.574C583.337 226.574 583.914 226.671 584.436 226.864C584.958 227.05 585.404 227.323 585.775 227.685L585.409 228.494C585.013 228.14 584.596 227.887 584.158 227.736C583.729 227.576 583.241 227.496 582.693 227.496C582.003 227.496 581.456 227.647 581.051 227.951C580.656 228.245 580.458 228.649 580.458 229.163C580.458 229.576 580.584 229.9 580.837 230.135C581.089 230.363 581.506 230.535 582.087 230.653L583.426 230.918C584.285 231.095 584.916 231.36 585.32 231.714C585.724 232.068 585.926 232.564 585.926 233.204C585.926 233.693 585.792 234.126 585.522 234.505C585.261 234.884 584.887 235.179 584.398 235.389C583.91 235.6 583.329 235.705 582.655 235.705ZM590.48 235.705C589.486 235.705 588.703 235.419 588.131 234.846C587.558 234.265 587.272 233.461 587.272 232.434C587.272 231.769 587.398 231.192 587.651 230.704C587.903 230.207 588.257 229.824 588.712 229.555C589.166 229.277 589.688 229.138 590.278 229.138C590.859 229.138 591.347 229.26 591.743 229.504C592.138 229.748 592.442 230.098 592.652 230.552C592.863 230.998 592.968 231.529 592.968 232.144V232.522H588.055V231.878H592.298L592.084 232.042C592.084 231.369 591.932 230.843 591.629 230.464C591.326 230.085 590.876 229.895 590.278 229.895C589.646 229.895 589.154 230.119 588.8 230.565C588.447 231.003 588.27 231.596 588.27 232.346V232.459C588.27 233.251 588.463 233.853 588.851 234.265C589.246 234.669 589.798 234.871 590.505 234.871C590.884 234.871 591.238 234.817 591.566 234.707C591.903 234.589 592.223 234.4 592.526 234.139L592.879 234.859C592.602 235.128 592.248 235.339 591.819 235.49C591.398 235.633 590.951 235.705 590.48 235.705ZM594.691 238.319V230.716C594.691 230.481 594.678 230.241 594.653 229.997C594.636 229.744 594.615 229.496 594.59 229.251H595.575L595.714 230.754H595.562C595.697 230.258 595.971 229.866 596.383 229.58C596.796 229.285 597.288 229.138 597.861 229.138C598.433 229.138 598.926 229.268 599.339 229.529C599.76 229.79 600.088 230.165 600.324 230.653C600.559 231.142 600.677 231.731 600.677 232.421C600.677 233.103 600.559 233.688 600.324 234.177C600.096 234.665 599.772 235.044 599.351 235.313C598.93 235.574 598.433 235.705 597.861 235.705C597.297 235.705 596.809 235.562 596.396 235.276C595.983 234.989 595.71 234.598 595.575 234.101H595.714V238.319H594.691ZM597.659 234.871C598.265 234.871 598.745 234.665 599.099 234.253C599.461 233.832 599.642 233.221 599.642 232.421C599.642 231.613 599.461 231.003 599.099 230.59C598.745 230.169 598.265 229.959 597.659 229.959C597.061 229.959 596.581 230.169 596.219 230.59C595.866 231.003 595.689 231.613 595.689 232.421C595.689 233.221 595.866 233.832 596.219 234.253C596.581 234.665 597.061 234.871 597.659 234.871Z" fill="#929292"/>
<path d="M652.087 231.133C652.087 230.19 652.247 229.382 652.567 228.708C652.896 228.026 653.363 227.5 653.969 227.13C654.584 226.759 655.32 226.574 656.179 226.574C657.013 226.574 657.737 226.759 658.351 227.13C658.966 227.5 659.438 228.026 659.766 228.708C660.103 229.382 660.271 230.186 660.271 231.121C660.271 232.064 660.103 232.876 659.766 233.558C659.429 234.24 658.953 234.77 658.339 235.149C657.733 235.52 657.013 235.705 656.179 235.705C655.32 235.705 654.588 235.52 653.982 235.149C653.376 234.77 652.908 234.24 652.58 233.558C652.252 232.876 652.087 232.068 652.087 231.133ZM653.186 231.133C653.186 232.278 653.439 233.175 653.944 233.823C654.449 234.463 655.194 234.783 656.179 234.783C657.122 234.783 657.855 234.463 658.377 233.823C658.907 233.175 659.172 232.278 659.172 231.133C659.172 229.98 658.911 229.087 658.389 228.456C657.867 227.816 657.131 227.496 656.179 227.496C655.194 227.496 654.449 227.816 653.944 228.456C653.439 229.087 653.186 229.98 653.186 231.133ZM664.88 235.705C664.257 235.705 663.714 235.57 663.251 235.301C662.796 235.031 662.443 234.648 662.19 234.152C661.946 233.655 661.824 233.065 661.824 232.383C661.824 231.693 661.95 231.108 662.203 230.628C662.455 230.14 662.809 229.769 663.264 229.517C663.727 229.264 664.266 229.138 664.88 229.138C665.284 229.138 665.676 229.209 666.055 229.352C666.442 229.496 666.762 229.698 667.015 229.959L666.648 230.691C666.396 230.447 666.118 230.266 665.815 230.148C665.52 230.03 665.23 229.971 664.943 229.971C664.287 229.971 663.777 230.178 663.415 230.59C663.053 231.003 662.872 231.605 662.872 232.396C662.872 233.179 663.053 233.785 663.415 234.215C663.777 234.644 664.287 234.859 664.943 234.859C665.221 234.859 665.508 234.804 665.802 234.695C666.105 234.585 666.387 234.404 666.648 234.152L667.015 234.871C666.754 235.141 666.429 235.347 666.042 235.49C665.655 235.633 665.268 235.705 664.88 235.705ZM670.874 235.705C670.251 235.705 669.776 235.528 669.447 235.175C669.119 234.813 668.955 234.269 668.955 233.545V230.047H667.717V229.251H668.955V227.521L669.978 227.231V229.251H671.796V230.047H669.978V233.432C669.978 233.937 670.062 234.299 670.23 234.518C670.407 234.728 670.668 234.834 671.013 234.834C671.173 234.834 671.316 234.821 671.443 234.796C671.569 234.762 671.683 234.724 671.784 234.682V235.541C671.666 235.591 671.523 235.629 671.354 235.654C671.194 235.688 671.034 235.705 670.874 235.705Z" fill="#929292"/>
<path d="M722.318 235.591V226.688H723.139L728.848 234.265H728.557V226.688H729.53V235.591H728.721L723.013 228.014H723.291V235.591H722.318ZM734.399 235.705C733.793 235.705 733.263 235.574 732.808 235.313C732.362 235.044 732.016 234.665 731.772 234.177C731.528 233.68 731.406 233.095 731.406 232.421C731.406 231.739 731.528 231.154 731.772 230.666C732.016 230.178 732.362 229.803 732.808 229.542C733.263 229.272 733.793 229.138 734.399 229.138C735.014 229.138 735.544 229.272 735.99 229.542C736.445 229.803 736.795 230.178 737.039 230.666C737.291 231.154 737.418 231.739 737.418 232.421C737.418 233.095 737.291 233.68 737.039 234.177C736.795 234.665 736.445 235.044 735.99 235.313C735.544 235.574 735.014 235.705 734.399 235.705ZM734.399 234.871C735.005 234.871 735.485 234.665 735.839 234.253C736.193 233.832 736.369 233.221 736.369 232.421C736.369 231.613 736.188 231.003 735.826 230.59C735.473 230.169 734.997 229.959 734.399 229.959C733.801 229.959 733.326 230.169 732.972 230.59C732.618 231.003 732.442 231.613 732.442 232.421C732.442 233.221 732.618 233.832 732.972 234.253C733.326 234.665 733.801 234.871 734.399 234.871ZM740.953 235.591L738.238 229.251H739.349L741.623 234.834H741.282L743.58 229.251H744.641L741.926 235.591H740.953Z" fill="#929292"/>
<path d="M794.003 235.591V226.688H796.958C797.943 226.688 798.777 226.86 799.459 227.205C800.141 227.542 800.659 228.043 801.012 228.708C801.366 229.365 801.543 230.173 801.543 231.133C801.543 232.085 801.366 232.893 801.012 233.558C800.659 234.223 800.141 234.728 799.459 235.074C798.777 235.419 797.943 235.591 796.958 235.591H794.003ZM795.051 234.695H796.883C798.095 234.695 798.996 234.4 799.585 233.811C800.175 233.213 800.469 232.32 800.469 231.133C800.469 229.938 800.175 229.045 799.585 228.456C798.996 227.866 798.095 227.572 796.883 227.572H795.051V234.695ZM806.299 235.705C805.305 235.705 804.522 235.419 803.95 234.846C803.377 234.265 803.091 233.461 803.091 232.434C803.091 231.769 803.217 231.192 803.47 230.704C803.722 230.207 804.076 229.824 804.531 229.555C804.985 229.277 805.507 229.138 806.097 229.138C806.678 229.138 807.166 229.26 807.562 229.504C807.957 229.748 808.26 230.098 808.471 230.552C808.681 230.998 808.787 231.529 808.787 232.144V232.522H803.874V231.878H808.117L807.903 232.042C807.903 231.369 807.751 230.843 807.448 230.464C807.145 230.085 806.694 229.895 806.097 229.895C805.465 229.895 804.973 230.119 804.619 230.565C804.265 231.003 804.089 231.596 804.089 232.346V232.459C804.089 233.251 804.282 233.853 804.669 234.265C805.065 234.669 805.617 234.871 806.324 234.871C806.703 234.871 807.056 234.817 807.385 234.707C807.722 234.589 808.042 234.4 808.345 234.139L808.698 234.859C808.42 235.128 808.067 235.339 807.637 235.49C807.216 235.633 806.77 235.705 806.299 235.705ZM813.175 235.705C812.552 235.705 812.009 235.57 811.545 235.301C811.091 235.031 810.737 234.648 810.485 234.152C810.24 233.655 810.118 233.065 810.118 232.383C810.118 231.693 810.245 231.108 810.497 230.628C810.75 230.14 811.103 229.769 811.558 229.517C812.021 229.264 812.56 229.138 813.175 229.138C813.579 229.138 813.97 229.209 814.349 229.352C814.736 229.496 815.056 229.698 815.309 229.959L814.943 230.691C814.69 230.447 814.412 230.266 814.109 230.148C813.815 230.03 813.524 229.971 813.238 229.971C812.581 229.971 812.072 230.178 811.71 230.59C811.348 231.003 811.167 231.605 811.167 232.396C811.167 233.179 811.348 233.785 811.71 234.215C812.072 234.644 812.581 234.859 813.238 234.859C813.516 234.859 813.802 234.804 814.097 234.695C814.4 234.585 814.682 234.404 814.943 234.152L815.309 234.871C815.048 235.141 814.724 235.347 814.337 235.49C813.949 235.633 813.562 235.705 813.175 235.705Z" fill="#929292"/>
<line x1="18.5485" y1="0.394665" x2="18.5485" y2="204.042" stroke="url(#paint0_linear_286_601)" stroke-width="0.789331" stroke-linecap="round" stroke-dasharray="6.31 6.31"/>
<line x1="97.1657" y1="0.394665" x2="97.1656" y2="204.042" stroke="url(#paint1_linear_286_601)" stroke-width="0.789331" stroke-linecap="round" stroke-dasharray="6.31 6.31"/>
<line x1="175.783" y1="0.394665" x2="175.783" y2="204.042" stroke="url(#paint2_linear_286_601)" stroke-width="0.789331" stroke-linecap="round" stroke-dasharray="6.31 6.31"/>
<line x1="254.401" y1="0.394665" x2="254.401" y2="204.042" stroke="url(#paint3_linear_286_601)" stroke-width="0.789331" stroke-linecap="round" stroke-dasharray="6.31 6.31"/>
<line x1="333.018" y1="0.394665" x2="333.018" y2="204.042" stroke="url(#paint4_linear_286_601)" stroke-width="0.789331" stroke-linecap="round" stroke-dasharray="6.31 6.31"/>
<line x1="411.635" y1="0.394665" x2="411.635" y2="204.042" stroke="url(#paint5_linear_286_601)" stroke-width="0.789331" stroke-linecap="round" stroke-dasharray="6.31 6.31"/>
<line x1="490.253" y1="0.394665" x2="490.253" y2="204.042" stroke="url(#paint6_linear_286_601)" stroke-width="0.789331" stroke-linecap="round" stroke-dasharray="6.31 6.31"/>
<line x1="568.87" y1="0.394665" x2="568.87" y2="204.042" stroke="url(#paint7_linear_286_601)" stroke-width="0.789331" stroke-linecap="round" stroke-dasharray="6.31 6.31"/>
<line x1="647.487" y1="0.394665" x2="647.487" y2="204.042" stroke="url(#paint8_linear_286_601)" stroke-width="0.789331" stroke-linecap="round" stroke-dasharray="6.31 6.31"/>
<line x1="726.105" y1="0.394665" x2="726.105" y2="204.042" stroke="url(#paint9_linear_286_601)" stroke-width="0.789331" stroke-linecap="round" stroke-dasharray="6.31 6.31"/>
<line x1="804.722" y1="0.394665" x2="804.722" y2="204.042" stroke="url(#paint10_linear_286_601)" stroke-width="0.789331" stroke-linecap="round" stroke-dasharray="6.31 6.31"/>
<path d="M18.5493 178.783C83.6691 178.783 92.2728 116.032 174.048 116.032C276.266 116.032 241.93 64.7251 309.812 64.7251C377.695 64.7251 366.25 177.599 445.972 177.599C525.694 177.599 500.83 78.1437 582.921 78.1437C665.011 78.1437 627.123 139.712 716.712 139.712C769.992 139.712 767.23 102.613 786.174 102.613H805.118" stroke="#F2994A" stroke-width="1.57866" stroke-linecap="round"/>
<path d="M175.627 175.626C87.6161 175.626 55.6482 99.8503 18.9443 99.8503V204.437H804.723V65.5145C801.882 62.6729 790.91 61.4362 785.779 61.1731C710.398 61.1731 738.419 176.81 650.409 176.81C562.399 176.81 597.919 99.8503 513.065 99.8503C417.556 99.8503 446.367 24.4692 377.301 24.4692C308.234 24.4692 289.685 175.626 175.627 175.626Z" fill="url(#paint11_linear_286_601)"/>
<path d="M18.9443 99.8503C55.6482 99.8503 87.6161 175.626 175.627 175.626C289.685 175.626 308.234 24.4692 377.301 24.4692C446.367 24.4692 417.556 99.8503 513.065 99.8503C597.918 99.8503 562.399 176.81 650.409 176.81C738.419 176.81 710.398 61.1731 785.779 61.1731C790.91 61.4362 801.882 62.6729 804.723 65.5144" stroke="#4971AE" stroke-width="2.36799" stroke-linecap="round"/>
<defs>
<linearGradient id="paint0_linear_286_601" x1="18.1538" y1="102.218" x2="17.1538" y2="102.218" gradientUnits="userSpaceOnUse">
<stop stop-color="#DDDFE5" stop-opacity="0.72"/>
<stop offset="1" stop-color="#DDDFE5"/>
</linearGradient>
<linearGradient id="paint1_linear_286_601" x1="96.771" y1="102.218" x2="95.771" y2="102.218" gradientUnits="userSpaceOnUse">
<stop stop-color="#DDDFE5" stop-opacity="0.72"/>
<stop offset="1" stop-color="#DDDFE5"/>
</linearGradient>
<linearGradient id="paint2_linear_286_601" x1="175.389" y1="102.218" x2="174.389" y2="102.218" gradientUnits="userSpaceOnUse">
<stop stop-color="#DDDFE5" stop-opacity="0.72"/>
<stop offset="1" stop-color="#DDDFE5"/>
</linearGradient>
<linearGradient id="paint3_linear_286_601" x1="254.006" y1="102.218" x2="253.006" y2="102.218" gradientUnits="userSpaceOnUse">
<stop stop-color="#DDDFE5" stop-opacity="0.72"/>
<stop offset="1" stop-color="#DDDFE5"/>
</linearGradient>
<linearGradient id="paint4_linear_286_601" x1="332.623" y1="102.218" x2="331.623" y2="102.218" gradientUnits="userSpaceOnUse">
<stop stop-color="#DDDFE5" stop-opacity="0.72"/>
<stop offset="1" stop-color="#DDDFE5"/>
</linearGradient>
<linearGradient id="paint5_linear_286_601" x1="411.241" y1="102.218" x2="410.241" y2="102.218" gradientUnits="userSpaceOnUse">
<stop stop-color="#DDDFE5" stop-opacity="0.72"/>
<stop offset="1" stop-color="#DDDFE5"/>
</linearGradient>
<linearGradient id="paint6_linear_286_601" x1="489.858" y1="102.218" x2="488.858" y2="102.218" gradientUnits="userSpaceOnUse">
<stop stop-color="#DDDFE5" stop-opacity="0.72"/>
<stop offset="1" stop-color="#DDDFE5"/>
</linearGradient>
<linearGradient id="paint7_linear_286_601" x1="568.476" y1="102.218" x2="567.476" y2="102.218" gradientUnits="userSpaceOnUse">
<stop stop-color="#DDDFE5" stop-opacity="0.72"/>
<stop offset="1" stop-color="#DDDFE5"/>
</linearGradient>
<linearGradient id="paint8_linear_286_601" x1="647.093" y1="102.218" x2="646.093" y2="102.218" gradientUnits="userSpaceOnUse">
<stop stop-color="#DDDFE5" stop-opacity="0.72"/>
<stop offset="1" stop-color="#DDDFE5"/>
</linearGradient>
<linearGradient id="paint9_linear_286_601" x1="725.71" y1="102.218" x2="724.71" y2="102.218" gradientUnits="userSpaceOnUse">
<stop stop-color="#DDDFE5" stop-opacity="0.72"/>
<stop offset="1" stop-color="#DDDFE5"/>
</linearGradient>
<linearGradient id="paint10_linear_286_601" x1="804.327" y1="102.218" x2="803.327" y2="102.218" gradientUnits="userSpaceOnUse">
<stop stop-color="#DDDFE5" stop-opacity="0.72"/>
<stop offset="1" stop-color="#DDDFE5"/>
</linearGradient>
<linearGradient id="paint11_linear_286_601" x1="411.834" y1="24.4692" x2="411.834" y2="204.437" gradientUnits="userSpaceOnUse">
<stop stop-color="#4971AE"/>
<stop offset="1" stop-color="#E7FFEF" stop-opacity="0"/>
</linearGradient>
</defs>
</svg>
