<svg width="171" height="171" viewBox="0 0 171 171" fill="none" xmlns="http://www.w3.org/2000/svg">
<path d="M36.7941 117.583C35.2783 120.371 34.0717 124.566 34.0717 127.209C34.0717 127.822 34.0717 128.603 34.2202 129.685L15.2744 96.3193C14.668 95.2367 14.2163 93.6835 14.2163 92.2841C14.2163 90.8829 14.668 89.1796 15.2744 88.0951L24.3698 71.7987L14.2163 65.9061L47.2572 65.2798L63.3197 94.9199L53.0177 88.8681L36.7941 117.583ZM36.7941 117.583C35.2783 120.371 34.0717 124.566 34.0717 127.209C34.0717 127.822 34.0717 128.603 34.2202 129.685L15.2744 96.3193C14.668 95.2367 14.2163 93.6835 14.2163 92.2841C14.2163 90.8829 14.668 89.1796 15.2744 88.0951L24.3698 71.7987M36.7941 117.583C35.2783 120.371 34.0717 124.566 34.0717 127.209C34.0717 127.822 34.0717 128.603 34.2202 129.685L15.2744 96.3193C14.668 95.2367 14.2163 93.6835 14.2163 92.2841C14.2163 90.8829 14.668 89.1796 15.2744 88.0951L24.3698 71.7987L14.2163 65.9061M36.7941 117.583C35.2783 120.371 34.0717 124.566 34.0717 127.209C34.0717 127.822 34.0717 128.603 34.2202 129.685L15.2744 96.3193C14.668 95.2367 14.2163 93.6835 14.2163 92.2841C14.2163 90.8829 14.668 89.1796 15.2744 88.0951L24.3698 71.7987L14.2163 65.9061L47.2572 65.2798L63.3197 94.9199M36.7941 117.583C35.2783 120.371 34.0717 124.566 34.0717 127.209C34.0717 127.822 34.0717 128.603 34.2202 129.685L15.2744 96.3193C14.668 95.2367 14.2163 93.6835 14.2163 92.2841C14.2163 90.8829 14.668 89.1796 15.2744 88.0951L24.3698 71.7987L14.2163 65.9061L47.2572 65.2798L63.3197 94.9199L53.0177 88.8681M36.7941 117.583C35.2783 120.371 34.0717 124.566 34.0717 127.209C34.0717 127.822 34.0717 128.603 34.2202 129.685L15.2744 96.3193C14.668 95.2367 14.2163 93.6835 14.2163 92.2841C14.2163 90.8829 14.668 89.1796 15.2744 88.0951L24.3698 71.7987L14.2163 65.9061" fill="#4971AE"/>
<path d="M64.6811 15.6172C58.9267 15.6172 54.2243 18.4106 51.3471 23.5374L37.5552 47.8985L66.4999 65.1273L84.3878 33.4596L79.2337 24.6144C75.7504 18.5698 70.8993 15.6172 64.6811 15.6172Z" fill="#4971AE"/>
<path d="M37.7036 128.291C37.7036 137.136 44.8254 144.43 53.4631 144.43V144.43H81.0526V110.132H45.1284L40.2837 118.977C38.7678 121.613 37.7036 125.807 37.7036 128.291Z" fill="#4971AE"/>
<path d="M73.3247 14.2163C76.9629 15.7695 79.9946 18.5701 82.2656 22.5999L98.4826 51.4666L88.3291 57.3592L121.209 57.8335L137.279 28.3401L127.279 34.3974L118.035 18.2587C116.513 15.6175 113.939 14.2163 110.604 14.2163H73.3247Z" fill="#4971AE"/>
<path d="M151.225 106.723C148.045 109.201 144.252 110.443 139.71 110.443V110.443H107.269V98.3335L90.2969 127.36L107.269 156.379V144.429H125.008C128.19 144.429 130.912 142.876 132.428 140.24L151.225 106.723Z" fill="#4971AE"/>
<path d="M156.379 90.4208C156.379 87.6258 155.618 84.99 154.251 82.5062L140.465 58.1377L111.52 75.0551L129.396 106.723H139.407C142.581 106.723 145.768 105.944 148.045 104.695C152.889 101.907 156.379 96.0092 156.379 90.4208Z" fill="#4971AE"/>
</svg>
