<svg width="60" height="60" viewBox="0 0 60 60" fill="none" xmlns="http://www.w3.org/2000/svg">
<circle cx="30" cy="30" r="30" fill="#4971AE"/>
<path d="M39.5 20.375H38.375V19.25C38.375 18.6312 37.8688 18.125 37.25 18.125C36.6312 18.125 36.125 18.6312 36.125 19.25V20.375H24.875V19.25C24.875 18.6312 24.3688 18.125 23.75 18.125C23.1312 18.125 22.625 18.6312 22.625 19.25V20.375H21.5C20.2625 20.375 19.25 21.3875 19.25 22.625V40.625C19.25 41.8625 20.2625 42.875 21.5 42.875H39.5C40.7375 42.875 41.75 41.8625 41.75 40.625V22.625C41.75 21.3875 40.7375 20.375 39.5 20.375ZM38.375 40.625H22.625C22.0062 40.625 21.5 40.1188 21.5 39.5V26H39.5V39.5C39.5 40.1188 38.9938 40.625 38.375 40.625Z" fill="white"/>
</svg>
