<svg width="157" height="157" viewBox="0 0 157 157" fill="none" xmlns="http://www.w3.org/2000/svg">
<rect x="12.3398" y="12.3398" width="55.5284" height="55.5284" rx="3" fill="#4971AE"/>
<rect x="80.208" y="12.3398" width="55.5284" height="55.5284" rx="3" fill="#4971AE"/>
<rect x="12.3398" y="80.208" width="55.5284" height="55.5284" rx="3" fill="#4971AE"/>
<path d="M148.382 143.471L129.705 124.829C133.499 119.995 135.558 114.026 135.55 107.881C135.55 92.5999 123.162 80.2119 107.881 80.2119C92.5994 80.2119 80.2114 92.5999 80.2114 107.881C80.2114 123.163 92.5994 135.551 107.881 135.551C114.026 135.558 119.995 133.499 124.828 129.705L143.47 148.382C144.12 149.037 145.004 149.405 145.926 149.405C146.848 149.405 147.732 149.037 148.382 148.382C149.036 147.733 149.405 146.849 149.405 145.927C149.405 145.004 149.036 144.12 148.382 143.471Z" fill="#4971AE"/>
</svg>
