<svg width="651" height="696" viewBox="0 0 651 696" fill="none" xmlns="http://www.w3.org/2000/svg">
<mask id="mask0_35_1379" style="mask-type:alpha" maskUnits="userSpaceOnUse" x="388" y="73" width="251" height="489">
<path d="M421.824 73.0683C461.566 86.5101 498.27 107.648 529.842 135.275C561.414 162.902 587.236 196.477 605.832 234.083C624.429 271.689 635.436 312.59 638.226 354.45C641.016 396.31 635.533 438.31 622.091 478.051L524.509 445.045C533.616 418.119 537.331 389.662 535.441 361.3C533.551 332.938 526.093 305.226 513.493 279.746C500.893 254.266 483.397 231.517 462.006 212.799C440.614 194.08 415.745 179.758 388.819 170.651L421.824 73.0683Z" fill="#C4C4C4"/>
<path d="M539.265 561.454L515.674 441.26L630.777 480.036L539.265 561.454Z" fill="#C4C4C4"/>
</mask>
<g mask="url(#mask0_35_1379)">
<rect x="88.5986" y="36.6328" width="650.86" height="638.933" fill="url(#paint0_linear_35_1379)"/>
</g>
<mask id="mask1_35_1379" style="mask-type:alpha" maskUnits="userSpaceOnUse" x="11" y="40" width="344" height="407">
<path d="M25.852 446.835C13.6007 406.71 9.37248 364.566 13.4087 322.808C17.4449 281.049 29.6664 240.495 49.3756 203.46C69.0848 166.425 95.8956 133.634 128.277 106.961C160.659 80.287 197.977 60.2527 238.101 48.0014L268.184 146.524C240.998 154.825 215.713 168.399 193.773 186.472C171.833 204.545 153.667 226.762 140.313 251.855C126.959 276.948 118.679 304.425 115.944 332.718C113.209 361.011 116.074 389.566 124.375 416.752L25.852 446.835Z" fill="#C4C4C4"/>
<path d="M354.706 66.9988L271.002 156.424L235.146 40.3788L354.706 66.9988Z" fill="#C4C4C4"/>
</mask>
<g mask="url(#mask1_35_1379)">
<rect x="-160.159" y="565.669" width="638.933" height="679.825" transform="rotate(-90 -160.159 565.669)" fill="url(#paint1_linear_35_1379)"/>
</g>
<mask id="mask2_35_1379" style="mask-type:alpha" maskUnits="userSpaceOnUse" x="54" y="490" width="492" height="206">
<path d="M545.364 601.59C515.698 631.255 480.481 654.787 441.721 670.842C402.962 686.896 361.419 695.16 319.467 695.16C277.514 695.16 235.971 686.896 197.212 670.842C158.452 654.787 123.235 631.255 93.5695 601.59L166.411 528.749C186.51 548.848 210.372 564.792 236.633 575.67C262.895 586.548 291.041 592.146 319.467 592.146C347.892 592.146 376.038 586.548 402.3 575.67C428.561 564.792 452.423 548.848 472.522 528.749L545.364 601.59Z" fill="#C4C4C4"/>
<path d="M54.7736 490.799L172.882 523.257L86.8647 609.008L54.7736 490.799Z" fill="#C4C4C4"/>
</mask>
<g mask="url(#mask2_35_1379)">
<rect x="562.261" y="104.785" width="638.933" height="638.933" transform="rotate(90 562.261 104.785)" fill="url(#paint2_linear_35_1379)"/>
</g>
<path d="M191.337 458.537V342.464L166.845 350.983L156.196 326.491L195.597 309.453H229.673V458.537H191.337ZM338.35 349.918C338.35 341.399 334.09 337.14 325.571 337.14H302.144C293.625 337.14 289.365 341.399 289.365 349.918V418.071C289.365 426.59 293.625 430.85 302.144 430.85H325.571C334.09 430.85 338.35 426.59 338.35 418.071V349.918ZM376.686 418.071C376.686 432.98 373.278 443.842 366.463 450.657C359.79 457.33 348.999 460.667 334.09 460.667H293.625C278.716 460.667 267.854 457.33 261.039 450.657C254.366 443.842 251.029 432.98 251.029 418.071V349.918C251.029 335.01 254.366 324.219 261.039 317.546C267.854 310.731 278.716 307.323 293.625 307.323H334.09C348.999 307.323 359.79 310.731 366.463 317.546C373.278 324.219 376.686 335.01 376.686 349.918V418.071ZM420.33 458.537V342.464L395.837 350.983L385.188 326.491L424.589 309.453H458.666V458.537H420.33Z" fill="black"/>
<defs>
<linearGradient id="paint0_linear_35_1379" x1="752.476" y1="665.982" x2="100.455" y2="24.5806" gradientUnits="userSpaceOnUse">
<stop offset="0.0964722" stop-color="#4971AE"/>
<stop offset="1" stop-color="#4971AE"/>
</linearGradient>
<linearGradient id="paint1_linear_35_1379" x1="478.774" y1="1245.49" x2="-199.745" y2="607.788" gradientUnits="userSpaceOnUse">
<stop stop-color="#E9AD27"/>
<stop offset="1" stop-color="#E9AD27"/>
</linearGradient>
<linearGradient id="paint2_linear_35_1379" x1="881.728" y1="104.785" x2="881.728" y2="743.718" gradientUnits="userSpaceOnUse">
<stop stop-color="#8EBB46"/>
<stop offset="1" stop-color="#8EBB46"/>
</linearGradient>
</defs>
</svg>
