<svg width="47" height="47" viewBox="0 0 47 47" fill="none" xmlns="http://www.w3.org/2000/svg">
<path d="M30.3542 27.4167H28.8071L28.2588 26.8879C30.1779 24.6554 31.3333 21.7571 31.3333 18.6042C31.3333 11.5738 25.6346 5.875 18.6042 5.875C11.5738 5.875 5.875 11.5738 5.875 18.6042C5.875 25.6346 11.5738 31.3333 18.6042 31.3333C21.7571 31.3333 24.6554 30.1779 26.8879 28.2588L27.4167 28.8071V30.3542L37.2083 40.1263L40.1263 37.2083L30.3542 27.4167V27.4167ZM18.6042 27.4167C13.7279 27.4167 9.79167 23.4804 9.79167 18.6042C9.79167 13.7279 13.7279 9.79167 18.6042 9.79167C23.4804 9.79167 27.4167 13.7279 27.4167 18.6042C27.4167 23.4804 23.4804 27.4167 18.6042 27.4167Z" fill="black"/>
</svg>
